<?xml version="1.0" encoding="UTF-8"?>
<svg version="1.1" xmlns="http://www.w3.org/2000/svg" width="512" height="512">
<path d="M0 0 C0.68707031 0.31936523 1.37414062 0.63873047 2.08203125 0.96777344 C36.9817951 17.40002362 69.72363767 41.99429534 93 73 C93.6185083 73.8038916 93.6185083 73.8038916 94.24951172 74.62402344 C110.29801573 95.49584833 122.89105296 118.32007692 132 143 C132.27972656 143.75394043 132.55945313 144.50788086 132.84765625 145.28466797 C156.30428616 209.43628442 150.04750657 280.32137974 121.74951172 341.71289062 C110.34250007 365.5651905 94.30587146 387.03007032 76 406 C75.43345703 406.58845703 74.86691406 407.17691406 74.28320312 407.78320312 C66.91965901 415.39084263 59.42973757 422.56316234 51 429 C50.46890625 429.41282227 49.9378125 429.82564453 49.390625 430.25097656 C-4.32540197 471.86241718 -71.88838836 488.82394831 -139 481 C-205.999778 472.38349602 -266.2424308 436.42065714 -307.51489258 383.3371582 C-330.68169187 353.06129253 -345.81212726 317.98663136 -353.75 280.8125 C-353.94883789 279.88767822 -354.14767578 278.96285645 -354.35253906 278.01000977 C-357.57578045 262.14121288 -358.37711899 246.52594581 -358.3125 230.375 C-358.31034485 229.40411438 -358.3081897 228.43322876 -358.30596924 227.43292236 C-358.25490848 213.09193347 -357.85105121 199.09772514 -355 185 C-354.70996094 183.50073975 -354.70996094 183.50073975 -354.4140625 181.97119141 C-345.4268765 136.5013005 -325.05317757 93.73105149 -293 60 C-291.80523226 58.63131037 -290.61719728 57.25670024 -289.4375 55.875 C-282.79708955 48.27490319 -275.59622677 41.53769069 -267.66064453 35.30566406 C-266.48339853 34.38006694 -265.31030101 33.44918238 -264.14013672 32.51464844 C-253.59086894 24.10322048 -242.74141221 16.65034357 -231 10 C-230.18547363 9.53851563 -229.37094727 9.07703125 -228.53173828 8.6015625 C-159.00399626 -30.29207105 -72.27717813 -33.6519889 0 0 Z " fill="#E5936A" transform="translate(358,26)"/>
<path d="M0 0 C0.68707031 0.31936523 1.37414062 0.63873047 2.08203125 0.96777344 C36.9817951 17.40002362 69.72363767 41.99429534 93 73 C93.6185083 73.8038916 93.6185083 73.8038916 94.24951172 74.62402344 C110.29801573 95.49584833 122.89105296 118.32007692 132 143 C132.27972656 143.75394043 132.55945313 144.50788086 132.84765625 145.28466797 C143 173.05034722 143 173.05034722 143 185 C138.85244411 185.69403546 134.70208913 186.36756126 130.54882812 187.02636719 C129.15252471 187.25030264 127.7569349 187.47876056 126.36230469 187.71289062 C100.80110775 191.99185751 74.83530452 192.30460464 48.98449302 192.3717854 C45.16913142 192.38400824 41.35384017 192.40780032 37.53852844 192.43040466 C30.35728838 192.47146315 23.17604132 192.50416123 15.99474221 192.53287882 C3.09354431 192.58452966 -9.80759848 192.64642373 -22.70869988 192.71821922 C-27.21882203 192.74292319 -31.72892658 192.76244514 -36.23909056 192.77760136 C-38.36172208 192.78538051 -40.48433094 192.79530889 -42.60694885 192.80615234 C-45.18091259 192.81920543 -47.75489691 192.82886467 -50.32888794 192.83433533 C-56.63756061 192.87227815 -62.7441606 193.18270879 -69 194 C-70.58850791 194.10476107 -72.17848785 194.19212003 -73.76953125 194.24609375 C-74.58510498 194.27767578 -75.40067871 194.30925781 -76.2409668 194.34179688 C-77.08957275 194.37337891 -77.93817871 194.40496094 -78.8125 194.4375 C-86.70333689 194.76824105 -94.52610462 195.34775968 -102.37231445 196.25170898 C-119.98766288 198.21025379 -137.6737442 198.20464443 -155.375 198.1875 C-156.62410156 198.18656342 -157.87320313 198.18562683 -159.16015625 198.18466187 C-176.85560009 198.15587841 -194.40120058 198.02095974 -212 196 C-213.11607635 195.87274536 -213.11607635 195.87274536 -214.25469971 195.74291992 C-230.99796573 193.82529581 -247.70298649 191.7283075 -264.34254456 189.04971313 C-270.7127552 188.02936284 -277.08865241 187.16027798 -283.5 186.4375 C-284.5825708 186.31455566 -285.6651416 186.19161133 -286.78051758 186.06494141 C-304.32875441 184.13434513 -321.93811468 182.94081029 -339.58081055 182.34130859 C-344.4620308 182.1661613 -349.17956128 181.79682116 -354 181 C-344.98546177 135.79141128 -324.89683316 93.56652299 -293 60 C-291.80523226 58.63131037 -290.61719728 57.25670024 -289.4375 55.875 C-282.79708955 48.27490319 -275.59622677 41.53769069 -267.66064453 35.30566406 C-266.48339853 34.38006694 -265.31030101 33.44918238 -264.14013672 32.51464844 C-253.59086894 24.10322048 -242.74141221 16.65034357 -231 10 C-230.18547363 9.53851563 -229.37094727 9.07703125 -228.53173828 8.6015625 C-159.00399626 -30.29207105 -72.27717813 -33.6519889 0 0 Z " fill="#F2D232" transform="translate(358,26)"/>
<path d="M0 0 C1.73830078 0.52787109 1.73830078 0.52787109 3.51171875 1.06640625 C12.51795094 4.01655582 19.83477841 8.21272091 27.4453125 13.79296875 C41.10832244 23.74368177 56.17281481 29.22375234 73.10546875 29.1484375 C73.88012985 29.14629242 74.65479095 29.14414734 75.45292664 29.14193726 C84.18291112 29.06433836 92.87240971 28.47472979 101.57592773 27.828125 C104.29952145 27.62596335 107.02365562 27.4332697 109.74804688 27.2421875 C119.85522667 26.52098386 129.94203294 25.67340424 140.02131653 24.62857056 C144.71112961 24.15612418 149.28625953 23.90876375 154 24 C142.05800512 53.02458358 124.76073453 78.44987969 103 101 C102.15018555 101.88268555 102.15018555 101.88268555 101.28320312 102.78320312 C93.91965901 110.39084263 86.42973757 117.56316234 78 124 C77.46890625 124.41282227 76.9378125 124.82564453 76.390625 125.25097656 C22.67459803 166.86241718 -44.88838836 183.82394831 -112 176 C-178.999778 167.38349602 -239.2424308 131.42065714 -280.51489258 78.3371582 C-293.33082429 61.58847306 -304.73027808 42.84303345 -312 23 C-297.27824357 23.58611952 -282.6367822 24.73830399 -267.96270752 26.04138184 C-229.09478134 29.47617214 -190.22853378 32.42083944 -151.20098877 32.96746826 C-148.94751886 33.0007757 -146.69425144 33.04105008 -144.44091797 33.08251953 C-140.69097895 33.14942917 -136.9412487 33.19672378 -133.19085693 33.22915649 C-131.15333829 33.2491104 -129.11595692 33.28184992 -127.07861328 33.31518555 C-113.79432016 33.36049817 -101.9834437 30.71624039 -90 25 C-89.2678125 24.65453125 -88.535625 24.3090625 -87.78125 23.953125 C-83.4793965 21.73799148 -79.68318503 19.04665688 -75.84130859 16.12963867 C-53.60437224 -0.71488339 -27.52385793 -8.7977415 0 0 Z " fill="#EBC42E" transform="translate(331,331)"/>
<path d="M0 0 C5.00335225 4.21930513 8.995002 8.04873378 9.58984375 14.83984375 C9.71655765 19.62329365 9.62303977 22.91554053 7.35546875 27.1640625 C41.08138078 28.11134373 74.15417239 26.87720573 107.73046875 23.7265625 C108.60539223 23.64489208 109.4803157 23.56322166 110.38175201 23.47907639 C116.2363815 22.93122525 122.08950207 22.36919159 127.94140625 21.79296875 C129.08585583 21.68064093 129.08585583 21.68064093 130.2534256 21.56604385 C132.38990032 21.35459415 134.52583418 21.13844235 136.66162109 20.92016602 C137.86346039 20.79803238 139.06529968 20.67589874 140.30355835 20.55006409 C142.74349108 20.24146463 144.99691573 19.83919927 147.35546875 19.1640625 C168.35546875 65.98925881 168.35546875 65.98925881 168.35546875 85.1640625 C164.20791286 85.85809796 160.05755788 86.53162376 155.90429688 87.19042969 C154.50799346 87.41436514 153.11240365 87.64282306 151.71777344 87.87695312 C126.1565765 92.15592001 100.19077327 92.46866714 74.33996177 92.5358479 C70.52460017 92.54807074 66.70930892 92.57186282 62.89399719 92.59446716 C55.71275713 92.63552565 48.53151007 92.66822373 41.35021096 92.69694132 C28.44901306 92.74859216 15.54787027 92.81048623 2.64676887 92.88228172 C-1.86335328 92.90698569 -6.37345783 92.92650764 -10.88362181 92.94166386 C-13.00625333 92.94944301 -15.12886219 92.95937139 -17.2514801 92.97021484 C-19.82544384 92.98326793 -22.39942816 92.99292717 -24.97341919 92.99839783 C-31.28209186 93.03634065 -37.38869185 93.34677129 -43.64453125 94.1640625 C-45.23303916 94.26882357 -46.8230191 94.35618253 -48.4140625 94.41015625 C-49.22963623 94.44173828 -50.04520996 94.47332031 -50.88549805 94.50585938 C-51.734104 94.53744141 -52.58270996 94.56902344 -53.45703125 94.6015625 C-61.34786814 94.93230355 -69.17063587 95.51182218 -77.0168457 96.41577148 C-94.63219413 98.37431629 -112.31827545 98.36870693 -130.01953125 98.3515625 C-131.26863281 98.35062592 -132.51773438 98.34968933 -133.8046875 98.34872437 C-151.50013134 98.31994091 -169.04573183 98.18502224 -186.64453125 96.1640625 C-187.7606076 96.03680786 -187.7606076 96.03680786 -188.89923096 95.90698242 C-205.64249698 93.98935831 -222.34751774 91.89237 -238.98707581 89.21377563 C-245.35728645 88.19342534 -251.73318366 87.32434048 -258.14453125 86.6015625 C-259.22710205 86.47861816 -260.30967285 86.35567383 -261.42504883 86.22900391 C-278.97328566 84.29840763 -296.58264593 83.10487279 -314.2253418 82.50537109 C-319.10656205 82.3302238 -323.82409253 81.96088366 -328.64453125 81.1640625 C-326.23414691 69.07580337 -323.2761966 57.32990176 -319.26953125 45.6640625 C-318.91898682 44.62846191 -318.56844238 43.59286133 -318.20727539 42.52587891 C-315.33580377 34.38197491 -311.63097258 26.80414914 -307.64453125 19.1640625 C-305.99203369 19.20950195 -305.99203369 19.20950195 -304.30615234 19.25585938 C-270.35872818 20.15443108 -236.41445781 20.2890625 -202.45703125 20.2890625 C-201.33487465 20.2890625 -200.21271805 20.2890625 -199.0565567 20.2890625 C-171.77121889 20.28514512 -144.49861103 20.20903004 -117.22070312 19.5222168 C-95.0312945 18.96938726 -72.83923227 19.07089779 -50.64453125 19.1640625 C-50.66128906 18.05417969 -50.67804688 16.94429687 -50.6953125 15.80078125 C-50.61253411 9.87257525 -47.74795863 6.50068582 -43.8828125 2.20703125 C-32.34816856 -8.90646951 -12.9449626 -8.98690166 0 0 Z " fill="#E27C48" transform="translate(332.64453125,125.8359375)"/>
<path d="M0 0 C39.71770049 0.79832357 78.7748896 5.42128927 118.0802002 10.95294189 C126.76950128 12.17315242 135.45511881 13.37534256 144.1875 14.25 C145.19731934 14.35175537 145.19731934 14.35175537 146.22753906 14.45556641 C148.48360903 14.66401363 150.7402744 14.83547444 153 15 C154.11383057 15.08612549 155.22766113 15.17225098 156.37524414 15.26098633 C169.93022396 16.19377892 183.48027078 16.19665168 197.0625 16.1875 C198.91328156 16.18808914 198.91328156 16.18808914 200.80145264 16.18869019 C231.02232292 16.4973596 231.02232292 16.4973596 261.04711914 13.48413086 C263.68515164 13.05162003 266.19583305 12.82089487 268.86328125 12.71875 C269.75080078 12.68136719 270.63832031 12.64398438 271.55273438 12.60546875 C272.46345703 12.57066406 273.37417969 12.53585938 274.3125 12.5 C276.12120842 12.42998548 277.92980787 12.35709342 279.73828125 12.28125 C280.53274658 12.25095703 281.32721191 12.22066406 282.14575195 12.18945312 C284.38443215 12.04085884 286.61630228 11.78918494 288.84106445 11.49900818 C295.01978896 10.80864668 301.18629419 10.83961646 307.3972168 10.82641602 C309.42182479 10.81614883 311.44643276 10.80587964 313.47104037 10.79553688 C315.63470438 10.78535263 317.79836621 10.77747549 319.96204185 10.77020454 C324.51190713 10.75458521 329.06170622 10.73062706 333.61152649 10.70530701 C346.54655724 10.63457811 359.4816279 10.57492013 372.41674805 10.52319336 C379.57079747 10.49451072 386.72478286 10.45892437 393.87876445 10.41653961 C397.64442983 10.39455865 401.41003806 10.37587708 405.17575645 10.36609077 C420.20153432 10.32545486 435.1774359 10.08312253 450.17504883 9.10913086 C451.94804997 8.99517015 451.94804997 8.99517015 453.75686932 8.8789072 C464.16365975 8.13088173 474.40837552 6.58339375 484.68359375 4.8046875 C488.86780301 4.11062088 492.76559457 3.8213331 497 4 C499.05680916 16.36672679 501.02054944 28.49657075 501.0546875 41.06640625 C501.05915894 42.70959839 501.05915894 42.70959839 501.0637207 44.38598633 C501.06195298 49.2574851 501.03840819 54.12865985 501 59 C491.23162829 61.1030605 481.51550384 62.72381916 471.59326172 63.88037109 C469.50000608 64.12499929 467.40823306 64.38018778 465.31640625 64.63671875 C451.65710294 66.27181794 438.10239766 67.15058353 424.34448242 67.12597656 C422.37904667 67.12901584 420.41361092 67.13206252 418.44817561 67.13537318 C416.36017886 67.13814467 414.27219113 67.13870656 412.18419266 67.13876915 C405.43802125 67.13998907 398.69189725 67.16240503 391.9457612 67.18265474 C389.56734566 67.18975348 387.18892926 67.19648206 384.81051254 67.20317554 C318.62838822 67.14323247 318.62838822 67.14323247 252.5625 70.5625 C251.13189052 70.67862456 249.70127735 70.79470356 248.2706604 70.91073608 C246.87029754 71.02468536 245.46993739 71.1386681 244.06958008 71.25268555 C241.38368571 71.47129039 238.69772324 71.68899577 236.01171875 71.90625 C234.1172274 72.06012932 234.1172274 72.06012932 232.1844635 72.21711731 C195.71229028 75.04484214 156.00625376 75.73066601 120 68 C119.88785156 67.03900391 119.88785156 67.03900391 119.7734375 66.05859375 C118.78361109 59.54708866 117.15089521 55.24722939 112 51 C104.40626818 46.21010762 96.33863318 44.57060371 87.48828125 46.56640625 C83.44884656 47.8416658 80.27362168 49.25015779 77 52 C76.34 52 75.68 52 75 52 C73.47647232 54.93823196 72.21465217 57.92254092 71 61 C66.9375 60.72916667 62.875 60.45833333 58.8125 60.1875 C56.87286377 60.05819092 56.87286377 60.05819092 54.89404297 59.92626953 C53.48535156 59.83235677 52.07666016 59.73844401 50.66796875 59.64453125 C48.37182617 59.49145508 48.37182617 59.49145508 46.07568359 59.33837891 C40.61914062 58.97460938 40.61914062 58.97460938 35.16259766 58.61083984 C34.15116196 58.5434108 33.13972626 58.47598175 32.09764099 58.4065094 C28.99697876 58.19979858 25.89631653 57.99308777 22.7956543 57.78637695 C21.26683121 57.68445541 21.26683121 57.68445541 19.7071228 57.58047485 C16.61584473 57.37438965 16.61584473 57.37438965 13.52456665 57.16830444 C12.52106171 57.10140411 11.51755676 57.03450378 10.48364258 56.96557617 C9.52326584 56.90155106 8.5628891 56.83752594 7.57341003 56.77156067 C6.65457535 56.71030502 5.73574066 56.64904938 4.7890625 56.5859375 C1.859375 56.390625 -1.0703125 56.1953125 -4 56 C-4.78304977 18.21684455 -4.78304977 18.21684455 0 0 Z " fill="#EEECEE" transform="translate(4,207)"/>
<path d="M0 0 C9.18004999 -0.18785507 18.2175062 0.32950608 27.35717773 1.11090088 C46.71344327 2.74169736 66.09851195 3.73526596 85.5 4.625 C86.2027216 4.65744938 86.90544319 4.68989876 87.62945938 4.72333145 C101.89358346 5.38104065 116.15636517 6.01357474 130.43359375 6.3046875 C131.35512238 6.32383209 132.276651 6.34297668 133.22610474 6.36270142 C137.31752983 6.44322645 141.40788109 6.5056341 145.5 6.53369141 C152.95093427 6.61701116 160.17552449 7.14509904 167.5390625 8.328125 C168.26129501 8.44184448 168.98352753 8.55556396 169.72764587 8.67272949 C182.8966534 10.98877034 194.78874552 17.89830358 205.40234375 25.78515625 C223.77962408 39.33728356 246.06017212 42.37225233 268.3125 39.375 C282.44775849 36.53595233 294.69112821 29.5474546 305.75 20.5625 C330.70556631 0.35858812 363.38835331 0.98321779 394 0 C391.72514001 4.14648392 388.91113027 7.51315014 385.6875 10.9375 C385.16551025 11.49598633 384.64352051 12.05447266 384.10571289 12.62988281 C374.60754217 22.72721425 365.0413485 32.56897031 354 41 C353.46890625 41.41282227 352.9378125 41.82564453 352.390625 42.25097656 C298.67459803 83.86241718 231.11161164 100.82394831 164 93 C103.08669065 85.1662461 43.11274551 53.92279462 4 6 C2.5829556 4.03697672 1.28403454 2.05445526 0 0 Z " fill="#E27C48" transform="translate(55,414)"/>
<path d="M0 0 C0.68707031 0.31936523 1.37414062 0.63873047 2.08203125 0.96777344 C22.94296223 10.7899613 42.12232549 23.16868257 59.625 38.1875 C60.59397217 39.01664917 60.59397217 39.01664917 61.58251953 39.86254883 C63.09764971 41.19471752 64.55541884 42.5916399 66 44 C66 44.66 66 45.32 66 46 C60.843202 46.39997547 55.68571971 46.78948476 50.52758789 47.171875 C48.79791196 47.30127796 47.06839793 47.43287705 45.33911133 47.56738281 C14.41335896 49.96687419 -16.60017527 51.03889167 -47.609375 51.4921875 C-48.72314325 51.50894405 -49.83691151 51.52570061 -50.98443031 51.54296494 C-61.2516263 51.69658997 -71.51889121 51.84065422 -81.78662109 51.95361328 C-87.49926297 52.01725478 -93.21137857 52.09962613 -98.92359161 52.19400406 C-101.06519555 52.22577156 -103.20691639 52.25053836 -105.34868622 52.26781845 C-108.31211217 52.2922072 -111.27428248 52.34047695 -114.23730469 52.39404297 C-115.52741203 52.39581039 -115.52741203 52.39581039 -116.84358215 52.39761353 C-124.52640142 52.58106397 -131.15265438 55.12827424 -137.1875 59.9375 C-137.84105469 60.44796875 -138.49460938 60.9584375 -139.16796875 61.484375 C-140.31339932 62.43198068 -141.44400285 63.39814865 -142.55078125 64.390625 C-149.31053301 70.43978291 -155.92580595 71.66341297 -164.76171875 71.3984375 C-174.09209525 70.25042978 -179.31481403 64.90355507 -185.54296875 58.3125 C-191.67850265 52.53787986 -199.30674212 51.03393267 -207.46166992 50.44335938 C-208.77370895 50.34655884 -210.08574799 50.2497583 -211.43754578 50.15002441 C-212.86851854 50.047911 -214.2994929 49.9458201 -215.73046875 49.84375 C-217.2053736 49.7358271 -218.68025223 49.62754516 -220.15510559 49.5189209 C-224.03943031 49.23358268 -227.92402674 48.95214309 -231.80871582 48.67181396 C-238.00798355 48.22405549 -244.20689597 47.77146091 -250.40566444 47.31684875 C-252.55956942 47.15960092 -254.71363105 47.0046582 -256.86772156 46.84997559 C-263.59683661 46.36197367 -270.30118535 45.8099043 -277 45 C-277 44.34 -277 43.68 -277 43 C-274.1076704 40.27009064 -270.93360608 37.87253661 -267.80566406 35.41845703 C-266.56674026 34.44520834 -265.33191122 33.46673119 -264.10058594 32.48388672 C-253.56495849 24.08287803 -242.7264225 16.64185338 -231 10 C-230.18547363 9.53851563 -229.37094727 9.07703125 -228.53173828 8.6015625 C-159.00399626 -30.29207105 -72.27717813 -33.6519889 0 0 Z " fill="#D16160" transform="translate(358,26)"/>
<path d="M0 0 C9.84599368 -0.4900028 17.00164749 2.88846034 24.23046875 9.40625 C27.78438569 13.37827482 28.21895865 16.77091212 28.06640625 21.94921875 C27.52566761 26.94669036 25.20747656 30.04881464 21.63671875 33.375 C15.64864836 38.17806278 10.44032156 39.35227145 2.82421875 39.1875 C7.22581019 59.71281585 14.35476411 79.35251582 24.12890625 97.94140625 C26.22287358 101.95082296 28.04310002 106.03155629 29.82421875 110.1875 C22.31482819 110.28419111 14.90115729 110.01815718 7.4140625 109.453125 C6.34343063 109.37509644 5.27279877 109.29706787 4.16972351 109.2166748 C0.70001172 108.96176932 -2.76914521 108.70011701 -6.23828125 108.4375 C-8.01335052 108.30510925 -8.01335052 108.30510925 -9.82427979 108.17004395 C-32.30618868 106.49001051 -54.74651774 104.45928015 -77.17578125 102.1875 C-83.87182517 85.79542167 -83.87182517 85.79542167 -86.23828125 77.75 C-86.4815918 76.92781982 -86.72490234 76.10563965 -86.97558594 75.25854492 C-92.98833726 54.29796871 -96.74766549 33.01441505 -96.17578125 11.1875 C-88.81231703 11.11237681 -81.51245385 11.31095764 -74.1640625 11.7734375 C-72.64621407 11.86620468 -72.64621407 11.86620468 -71.09770203 11.96084595 C-68.97070766 12.09195874 -66.84382065 12.22482397 -64.71704102 12.359375 C-61.51418172 12.56087057 -58.31086882 12.75341567 -55.10742188 12.9453125 C-43.73067267 13.64571522 -32.46138779 14.56470582 -21.17578125 16.1875 C-21.05332031 15.4140625 -20.93085937 14.640625 -20.8046875 13.84375 C-19.5996616 8.75419961 -15.34960536 6.18322928 -11.17578125 3.4375 C-7.33324252 1.15911737 -4.43676972 0.38234281 0 0 Z " fill="#E27C48" transform="translate(96.17578125,251.8125)"/>
<path d="M0 0 C-2.27485999 4.14648392 -5.08886973 7.51315014 -8.3125 10.9375 C-8.83448975 11.49598633 -9.35647949 12.05447266 -9.89428711 12.62988281 C-19.39245783 22.72721425 -28.9586515 32.56897031 -40 41 C-40.53109375 41.41282227 -41.0621875 41.82564453 -41.609375 42.25097656 C-56.86996413 54.07268294 -73.51186441 63.85457209 -91 72 C-92.06710205 72.52924072 -93.1342041 73.05848145 -94.23364258 73.60375977 C-98.08498473 75.23768654 -101.61873517 75.26477471 -105.7421875 74.9609375 C-106.46882599 74.91941559 -107.19546448 74.87789368 -107.94412231 74.83511353 C-109.47920245 74.74371601 -111.01381173 74.64407487 -112.54785156 74.53662109 C-114.83324404 74.37789996 -117.11885468 74.24723687 -119.40625 74.12109375 C-129.77653597 73.49717512 -139.8066062 71.95853351 -150 70 C-151.41396867 69.7519483 -152.82852329 69.50721286 -154.24365234 69.26586914 C-198.84901498 61.65576405 -242.03549067 38.73860998 -275 8 C-275 7.67 -275 7.34 -275 7 C-269.77542094 6.9245003 -264.55117561 6.87077836 -259.32617188 6.83520508 C-257.55756077 6.82033877 -255.78898498 6.80003971 -254.02050781 6.77368164 C-244.64861961 6.63774128 -235.50592064 6.79171167 -226.23828125 8.30859375 C-225.53019318 8.42346634 -224.8221051 8.53833893 -224.09255981 8.6566925 C-211.01213036 11.05031577 -199.1531539 17.94147751 -188.59765625 25.78515625 C-170.22037592 39.33728356 -147.93982788 42.37225233 -125.6875 39.375 C-111.55224151 36.53595233 -99.30887179 29.5474546 -88.25 20.5625 C-64.028917 0.95322244 -30.04415194 -0.35766848 0 0 Z " fill="#E59369" transform="translate(449,414)"/>
<path d="M0 0 C16.35822291 0.64823904 32.6318544 2.0024195 48.9375 3.4375 C52.69612847 3.76718715 56.45484313 4.09568281 60.21388245 4.4206543 C62.70554421 4.63683489 65.19687558 4.85685952 67.68785095 5.08081055 C74.17295061 5.64974732 80.6419237 6.0992379 87.14477539 6.37304688 C88.48018163 6.43689337 89.81555536 6.50142382 91.15089417 6.56666565 C93.67587539 6.68342107 96.20219535 6.77488626 98.72911072 6.83702087 C106.93397203 7.23904623 106.93397203 7.23904623 109.97723389 9.41139221 C112.40312669 12.18353607 114.13437739 15.20848155 115.265625 18.72265625 C117.03855643 23.45155182 119.72182817 27.10307527 122.8125 31.0625 C123.32047119 31.72749512 123.82844238 32.39249023 124.35180664 33.07763672 C132.06390897 43.09763357 140.26550911 52.55272728 149.34375 61.35839844 C150.57776047 62.55674866 151.79121342 63.77621075 153 65 C153 65.33 153 65.66 153 66 C133.39431904 66.20633422 113.96163779 65.50440518 94.40039062 64.24438477 C93.24836151 64.17047012 92.0963324 64.09655548 90.90939331 64.020401 C88.597563 63.87206239 86.28581428 63.7224465 83.97415161 63.57151794 C76.76446247 63.11771447 69.57759522 62.87785884 62.35546875 62.765625 C36.4885949 62.19459651 36.4885949 62.19459651 30.0390625 56.33203125 C26.95958067 52.66546124 24.89409425 48.73737134 23.02978516 44.34521484 C21.76862219 41.47306419 20.16860383 38.9598899 18.45898438 36.33911133 C14.46680982 30.15277099 11.08296511 23.55586701 7.625 17.0625 C7.20774658 16.28140869 6.79049316 15.50031738 6.3605957 14.69555664 C5.96573975 13.94137451 5.57088379 13.18719238 5.1640625 12.41015625 C4.81811035 11.75152588 4.4721582 11.09289551 4.11572266 10.41430664 C2.54320261 7.01153844 1.2897173 3.51961314 0 0 Z " fill="#DBB62B" transform="translate(19,354)"/>
<path d="M0 0 C1.70528738 0.17858656 3.41102994 0.35287698 5.1171875 0.52294922 C8.51530962 0.86614126 11.91015849 1.22994133 15.30419922 1.61132812 C21.71204898 2.32047698 28.13247138 2.7874504 34.5625 3.25 C40.11171863 3.66658504 45.58731048 4.08471399 51.0625 5.125 C48.64321849 8.80386156 46.15708502 12.40717396 43.56298828 15.96655273 C35.76476006 26.69863214 29.1143027 37.82999904 22.9375 49.5625 C22.44652832 50.49118896 21.95555664 51.41987793 21.44970703 52.37670898 C17.567603 59.85284802 14.40610699 67.32325036 11.0625 75.125 C34.8225 75.125 58.5825 75.125 83.0625 75.125 C83.0625 75.455 83.0625 75.785 83.0625 76.125 C70.55780889 76.14861801 58.05312345 76.16615805 45.54841423 76.17681217 C39.73620671 76.18193659 33.92401489 76.18883262 28.11181641 76.20043945 C3.80158946 76.24760703 -20.49898808 76.19627038 -44.8046875 75.68359375 C-45.77963291 75.66406206 -46.75457832 75.64453037 -47.75906754 75.62440681 C-50.50212326 75.56785792 -53.244943 75.50492051 -55.98779297 75.43920898 C-57.17836367 75.41443009 -57.17836367 75.41443009 -58.3929863 75.38915062 C-63.30245513 75.25969424 -68.07270205 74.80419385 -72.9375 74.125 C-62.52458604 52.25206341 -49.46314177 32.88925003 -32.9375 15.125 C-31.74528787 13.7540837 -30.55758001 12.37923376 -29.375 11 C-28.56615356 10.11115112 -28.56615356 10.11115112 -27.7409668 9.2043457 C-25.90953867 7.17759965 -25.90953867 7.17759965 -24.48242188 4.96582031 C-18.02741539 -3.45492414 -9.36645993 -1.1549152 0 0 Z " fill="#EBC42E" transform="translate(97.9375,70.875)"/>
<path d="M0 0 C59.11769221 0.99548313 59.11769221 0.99548313 83 2 C82.36474662 5.43029162 81.53054801 8.70277412 80.4765625 12.02734375 C80.03026489 13.45276489 80.03026489 13.45276489 79.57495117 14.90698242 C79.26146729 15.90705322 78.9479834 16.90712402 78.625 17.9375 C75.95894082 26.57601807 73.60558741 35.09525282 72 44 C71.80792969 45.00804687 71.61585937 46.01609375 71.41796875 47.0546875 C70.10268945 54.34076709 69.45271318 61.61362701 69 69 C60.83442032 68.61597521 52.73048415 68.16937794 44.625 67.0625 C27.66772758 64.81938598 10.50842815 63.92119118 -6.57836914 63.34155273 C-11.4603944 63.16608882 -16.17874523 62.79695605 -21 62 C-18.58961566 49.91174087 -15.63166535 38.16583926 -11.625 26.5 C-11.27445557 25.46439941 -10.92391113 24.42879883 -10.56274414 23.36181641 C-7.69127252 15.21791241 -3.98644133 7.64008664 0 0 Z " fill="#DF6937" transform="translate(25,145)"/>
<path d="M0 0 C29.83435996 0.59966898 59.43408091 2.91272744 89 7 C88.99214478 8.39907593 88.99214478 8.39907593 88.98413086 9.82641602 C88.96700698 13.31340157 88.95451007 16.8003419 88.94506836 20.28735352 C88.94006445 21.7915925 88.93325927 23.29582668 88.92456055 24.80004883 C88.91232116 26.97218009 88.90673214 29.14424659 88.90234375 31.31640625 C88.89448853 33.27235718 88.89448853 33.27235718 88.88647461 35.26782227 C88.99854025 38.95201033 89.40625214 42.36971466 90 46 C89.39671875 46.18175781 88.7934375 46.36351562 88.171875 46.55078125 C83.89789693 47.89501629 80.47560649 49.08049055 77 52 C76.34 52 75.68 52 75 52 C73.47647232 54.93823196 72.21465217 57.92254092 71 61 C66.9375 60.72916667 62.875 60.45833333 58.8125 60.1875 C56.87286377 60.05819092 56.87286377 60.05819092 54.89404297 59.92626953 C53.48535156 59.83235677 52.07666016 59.73844401 50.66796875 59.64453125 C48.37182617 59.49145508 48.37182617 59.49145508 46.07568359 59.33837891 C40.61914062 58.97460938 40.61914062 58.97460938 35.16259766 58.61083984 C34.15116196 58.5434108 33.13972626 58.47598175 32.09764099 58.4065094 C28.99697876 58.19979858 25.89631653 57.99308777 22.7956543 57.78637695 C21.26683121 57.68445541 21.26683121 57.68445541 19.7071228 57.58047485 C16.61584473 57.37438965 16.61584473 57.37438965 13.52456665 57.16830444 C12.52106171 57.10140411 11.51755676 57.03450378 10.48364258 56.96557617 C9.52326584 56.90155106 8.5628891 56.83752594 7.57341003 56.77156067 C6.65457535 56.71030502 5.73574066 56.64904938 4.7890625 56.5859375 C1.859375 56.390625 -1.0703125 56.1953125 -4 56 C-4.78304977 18.21684455 -4.78304977 18.21684455 0 0 Z " fill="#E3DFE3" transform="translate(4,207)"/>
<path d="M0 0 C14.28248397 -0.45318015 27.39171318 3.16210832 38.00390625 13.00390625 C44.01042891 19.42921037 45.27772819 25.57160641 45.046875 34.2890625 C44.06910922 41.07859495 39.58743291 45.72873226 34.62890625 50.19140625 C33.92765625 50.85140625 33.22640625 51.51140625 32.50390625 52.19140625 C19.25591989 61.40739676 2.16642013 63.5883906 -13.55517578 60.8046875 C-24.1911499 58.1765743 -33.06455426 52.09475612 -39.37109375 43.19140625 C-42.30823829 37.8235214 -43.27650395 33.19729391 -42.37109375 27.19140625 C-39.00812409 16.25271462 -32.18607303 10.50516639 -22.37109375 5.19140625 C-14.95456299 1.85044531 -8.05877963 0.45756686 0 0 Z " fill="#E27C47" transform="translate(306.37109375,360.80859375)"/>
<path d="M0 0 C0.72251953 0.00451172 1.44503906 0.00902344 2.18945312 0.01367188 C3.93883944 0.02525721 5.68818199 0.04318238 7.4375 0.0625 C5.08633344 2.41366656 2.57889312 3.43190084 -0.42626953 4.77636719 C-26.9717932 16.68612357 -63.61235078 38.35153497 -79.34765625 63.96875 C-81.23603728 67.03145455 -82.67569969 68.89456181 -85.5625 71.0625 C-88.53774841 71.42839306 -91.03306308 71.53760608 -93.9921875 71.421875 C-95.23891739 71.39654945 -95.23891739 71.39654945 -96.51083374 71.37071228 C-106.42049018 71.11665548 -116.30626916 70.38435015 -126.1875 69.625 C-128.04813345 69.48833688 -129.90881058 69.35226725 -131.76953125 69.21679688 C-133.56774798 69.08386851 -135.36592664 68.9504241 -137.1640625 68.81640625 C-137.97670563 68.7559462 -138.78934875 68.69548615 -139.62661743 68.63319397 C-144.95416126 68.22287686 -150.25453997 67.67689323 -155.5625 67.0625 C-155.5625 66.4025 -155.5625 65.7425 -155.5625 65.0625 C-152.6701704 62.33259064 -149.49610608 59.93503661 -146.36816406 57.48095703 C-145.12924026 56.50770834 -143.89441122 55.52923119 -142.66308594 54.54638672 C-132.12745849 46.14537803 -121.2889225 38.70435338 -109.5625 32.0625 C-108.74797363 31.60101563 -107.93344727 31.13953125 -107.09423828 30.6640625 C-75.18690615 12.81518596 -36.97109274 -0.45044443 0 0 Z " fill="#CA4646" transform="translate(236.5625,3.9375)"/>
<path d="M0 0 C5.00938001 4.22438831 8.72892883 7.98712968 9.73046875 14.6640625 C10.14669668 20.9074815 9.12256265 25.15748609 5.32421875 30.15625 C-2.08362492 37.71107469 -10.78263642 40.15592725 -21.01953125 40.5390625 C-30.66128763 40.36071787 -38.65249221 36.80166638 -45.64453125 30.1640625 C-50.03729087 24.78293197 -50.27085659 20.05577088 -50.01953125 13.18359375 C-49.51366369 9.11030603 -48.47841156 7.13963682 -45.64453125 4.1640625 C-45.08507812 3.56980469 -44.525625 2.97554687 -43.94921875 2.36328125 C-32.43822558 -8.89139426 -13.02787347 -9.04446164 0 0 Z " fill="#CA4646" transform="translate(332.64453125,125.8359375)"/>
<path d="M0 0 C0.00386719 1.23363281 0.00386719 1.23363281 0.0078125 2.4921875 C0.29230374 10.70450134 1.5160466 16.70893249 7 23 C16.58730929 31.34158982 27.72267099 35.41356403 40.375 35.25 C41.11596924 35.24540771 41.85693848 35.24081543 42.62036133 35.23608398 C48.26970191 35.14290535 53.51986741 34.38323192 59 33 C60.99810662 32.65549886 62.99722415 32.31622777 65 32 C62.87258512 40.12285681 58.24240537 44.28377674 51.390625 48.6171875 C37.93967225 56.39764056 21.05176198 58.8838135 5.83984375 55.125 C-5.26526142 51.45149405 -14.15966974 45.01853461 -19.8125 34.6875 C-22.1343382 27.47758139 -21.57880576 21.82166697 -18.1796875 15.05859375 C-15.02532881 9.55413338 -6.98084396 0 0 0 Z " fill="#DF6937" transform="translate(285,366)"/>
<path d="M0 0 C3.95782157 3.32199825 7.21838228 6.13297612 7.96484375 11.46484375 C7.99565053 17.31813192 7.32873518 21.44025161 3.1875 25.91015625 C-2.99538781 31.66955859 -9.32932403 33.89920519 -17.75390625 33.6015625 C-25.11731545 32.78835695 -31.94772726 30.54740081 -37.3359375 25.31640625 C-41.26471898 20.27950691 -41.99880932 16.2604408 -41.703125 9.89453125 C-41.14584198 5.98169304 -40.10773785 4.15420185 -37.3359375 1.31640625 C-25.54813709 -7.11197043 -12.24308501 -8.8240295 0 0 Z " fill="#DBB62C" transform="translate(116.3359375,257.68359375)"/>
<path d="M0 0 C4.15244151 3.50173582 7.79241745 6.84968808 9.35546875 12.1640625 C9.56997712 15.84645621 9.53241356 19.48098899 9.35546875 23.1640625 C8.86046875 22.1740625 8.86046875 22.1740625 8.35546875 21.1640625 C7.30746094 21.40189453 7.30746094 21.40189453 6.23828125 21.64453125 C-4.27705288 23.53957114 -14.25582083 22.51152596 -23.1875 16.43359375 C-28.3837436 12.1867454 -31.88511688 7.70957608 -33.64453125 1.1640625 C-33.64453125 -0.1559375 -33.64453125 -1.4759375 -33.64453125 -2.8359375 C-34.30453125 -3.1659375 -34.96453125 -3.4959375 -35.64453125 -3.8359375 C-23.72146747 -7.57650653 -10.52938637 -7.30991373 0 0 Z " fill="#D16160" transform="translate(332.64453125,125.8359375)"/>
<path d="M0 0 C2.90799783 2.5444981 3.90702057 3.95398137 4.25 7.8125 C4.1675 8.534375 4.085 9.25625 4 10 C5.093125 10.103125 6.18625 10.20625 7.3125 10.3125 C11 11 11 11 12.875 12.1875 C14.52261692 14.84199392 14.87533099 16.88327487 15 20 C13.73505015 22.92935754 12.70604943 24.52170845 10.0625 26.3125 C8 27 8 27 4 27 C3.896875 28.093125 3.79375 29.18625 3.6875 30.3125 C3 34 3 34 1.9375 35.9375 C-1.26159409 37.69184192 -4.49998766 37.62802641 -8 37 C-11.24499591 34.83666939 -11.87172124 33.55587463 -12.75 29.75 C-12.8325 28.8425 -12.915 27.935 -13 27 C-14.093125 26.9175 -15.18625 26.835 -16.3125 26.75 C-20 26 -20 26 -21.9375 24.375 C-23.422273 21.05609564 -23.38534485 18.59655194 -23 15 C-21.9375 12.625 -21.9375 12.625 -20 11 C-16.3125 10.25 -16.3125 10.25 -13 10 C-12.9175 8.906875 -12.835 7.81375 -12.75 6.6875 C-12 3 -12 3 -10.4375 1.0625 C-6.9115723 -0.47444284 -3.77542072 -0.82780741 0 0 Z " fill="#CA4545" transform="translate(475,12)"/>
<path d="M0 0 C4.0743356 0.84881992 5.54405875 2.30225596 8 5.625 C8.3125 8.9375 8.3125 8.9375 8 11.625 C8.886875 11.521875 9.77375 11.41875 10.6875 11.3125 C14 11.625 14 11.625 16.875 13.75 C19 16.625 19 16.625 19.625 19.625 C18.77618008 23.6993356 17.32274404 25.16905875 14 27.625 C10.6875 27.9375 10.6875 27.9375 8 27.625 C8.103125 28.511875 8.20625 29.39875 8.3125 30.3125 C8 33.625 8 33.625 5.875 36.5 C3 38.625 3 38.625 0 39.25 C-4.0743356 38.40118008 -5.54405875 36.94774404 -8 33.625 C-8.3125 30.3125 -8.3125 30.3125 -8 27.625 C-8.886875 27.728125 -9.77375 27.83125 -10.6875 27.9375 C-14 27.625 -14 27.625 -16.875 25.5 C-19 22.625 -19 22.625 -19.625 19.625 C-18.77618008 15.5506644 -17.32274404 14.08094125 -14 11.625 C-10.6875 11.3125 -10.6875 11.3125 -8 11.625 C-8.103125 10.738125 -8.20625 9.85125 -8.3125 8.9375 C-8 5.625 -8 5.625 -5.875 2.75 C-3 0.625 -3 0.625 0 0 Z " fill="#C94646" transform="translate(30,464.375)"/>
<path d="M0 0 C1.90625 0.44921875 1.90625 0.44921875 4.40625 2.57421875 C6.10136045 5.82318044 6.24234819 7.83616317 5.90625 11.44921875 C6.97875 11.34609375 8.05125 11.24296875 9.15625 11.13671875 C12.90625 11.44921875 12.90625 11.44921875 15.40625 13.51171875 C17.39081831 17.39816503 17.18651854 19.30717347 15.90625 23.44921875 C13.31764407 26.25354184 11.91521512 27.35953296 8.09375 27.69921875 C7.371875 27.61671875 6.65 27.53421875 5.90625 27.44921875 C5.803125 28.54234375 5.7 29.63546875 5.59375 30.76171875 C4.90625 34.44921875 4.90625 34.44921875 3.65625 36.32421875 C1.28560004 37.84820801 -0.26004587 38.31741856 -3.09375 38.44921875 C-8.73230422 36.17211032 -8.73230422 36.17211032 -10.09375 33.44921875 C-10.133742 31.44961863 -10.13721799 29.44874633 -10.09375 27.44921875 C-11.351875 27.36671875 -12.61 27.28421875 -13.90625 27.19921875 C-16.72818265 26.82962049 -17.84387641 26.65224104 -20.09375 24.82421875 C-21.50594248 21.47026162 -21.54394252 19.05075887 -21.09375 15.44921875 C-19.53125 13.01171875 -19.53125 13.01171875 -17.09375 11.44921875 C-13.34375 11.19921875 -13.34375 11.19921875 -10.09375 11.44921875 C-10.17625 10.37671875 -10.25875 9.30421875 -10.34375 8.19921875 C-10.09375 4.44921875 -10.09375 4.44921875 -8.59375 2.01171875 C-5.56188683 0.11680427 -3.53294544 -0.19114817 0 0 Z " fill="#E3E0E4" transform="translate(32.09375,15.55078125)"/>
<path d="M0 0 C2.9375 2.125 2.9375 2.125 5 5 C5.3125 8.3125 5.3125 8.3125 5 11 C5.9075 10.9175 6.815 10.835 7.75 10.75 C11 11 11 11 13.375 12.5 C15.34789171 15.53521802 15.63971021 17.52197594 15.453125 21.09375 C15 23 15 23 12.8125 25.5 C9.86008015 27.07462392 8.28423071 27.37534065 5 27 C4.896875 28.093125 4.79375 29.18625 4.6875 30.3125 C4 34 4 34 2.9375 35.9375 C-0.26225258 37.69220303 -3.4994894 37.626852 -7 37 C-9.5 35.375 -9.5 35.375 -11 33 C-11.25 29.75 -11.25 29.75 -11 27 C-12.258125 26.9175 -13.51625 26.835 -14.8125 26.75 C-17.63443265 26.38040174 -18.75012641 26.20302229 -21 24.375 C-22.41219248 21.02104287 -22.45019252 18.60154012 -22 15 C-20.4375 12.5625 -20.4375 12.5625 -18 11 C-14.25 10.75 -14.25 10.75 -11 11 C-11.0825 9.9275 -11.165 8.855 -11.25 7.75 C-11 4 -11 4 -9.4375 1.5625 C-6.01685857 -0.63021887 -3.99048721 -0.63007693 0 0 Z " fill="#E3E0E4" transform="translate(497,419)"/>
<path d="M0 0 C7.65396323 1.93363282 14.95186968 6.09132261 19.203125 12.9375 C20.09984862 15.25843172 20.267003 17.01756237 20.25 19.5 C20.25773437 20.62921875 20.25773437 20.62921875 20.265625 21.78125 C19.97250404 24.2296721 19.21816769 25.87304054 18 28 C9.6941633 28.4686679 2.2183989 28.57628792 -5 24 C-8.7297049 20.54985251 -12.77482487 16.76705597 -13.203125 11.50390625 C-13.21859375 10.53324219 -13.2340625 9.56257813 -13.25 8.5625 C-13.27578125 7.59441406 -13.3015625 6.62632812 -13.328125 5.62890625 C-13 3 -13 3 -11.76953125 1.1796875 C-8.20050407 -1.19966395 -4.09873375 -0.51161499 0 0 Z " fill="#EBC530" transform="translate(104,252)"/>
</svg>
