<?xml version="1.0" encoding="UTF-8"?>
<svg version="1.1" xmlns="http://www.w3.org/2000/svg" width="512" height="512">
<path d="M0 0 C0.92410675 -0.00705963 1.8482135 -0.01411926 2.80032349 -0.02139282 C41.54575492 -0.25018443 41.54575492 -0.25018443 58.0859375 3.203125 C59.07819336 3.40711914 60.07044922 3.61111328 61.09277344 3.82128906 C118.03204002 15.86107858 172.49066269 46.28208093 208.0859375 93.203125 C208.58770508 93.84491699 209.08947266 94.48670898 209.60644531 95.14794922 C240.45784101 134.66112161 261.02342749 185.42453637 261.2890625 235.99609375 C261.29612213 236.89654419 261.30318176 237.79699463 261.31045532 238.72473145 C261.5397799 276.55880606 261.5397799 276.55880606 258.0859375 293.203125 C257.77994629 294.69368408 257.77994629 294.69368408 257.46777344 296.21435547 C247.31583188 344.21811404 225.12005629 386.85747948 191.0859375 422.203125 C190.58416992 422.72680664 190.08240234 423.25048828 189.56542969 423.79003906 C173.66979932 440.29900565 155.07355093 454.02444744 135.0859375 465.203125 C134.38452637 465.60096191 133.68311523 465.99879883 132.96044922 466.40869141 C100.55784095 484.65696322 62.65567559 496.20999654 25.29296875 496.40625 C23.94229309 496.41683945 23.94229309 496.41683945 22.56433105 496.42764282 C-15.26974356 496.6569674 -15.26974356 496.6569674 -31.9140625 493.203125 C-33.40462158 492.89713379 -33.40462158 492.89713379 -34.92529297 492.58496094 C-101.41920297 478.52268106 -158.87671337 440.10251905 -196.22851562 383.20068359 C-198.92969259 378.94578085 -201.44349995 374.59485547 -203.9140625 370.203125 C-204.27419434 369.57712402 -204.63432617 368.95112305 -205.00537109 368.30615234 C-223.51045876 335.98545493 -234.81820264 297.67901619 -235.15234375 260.33203125 C-235.1621376 259.42023102 -235.17193146 258.50843079 -235.18202209 257.56900024 C-235.35369886 237.44104818 -235.19042244 217.96420382 -230.9140625 198.203125 C-230.69975586 197.18605469 -230.48544922 196.16898438 -230.26464844 195.12109375 C-222.08388809 157.25381879 -205.16632042 122.38317423 -180.9140625 92.203125 C-180.44178223 91.61515137 -179.96950195 91.02717773 -179.48291016 90.42138672 C-168.40264416 76.78092213 -155.9869158 63.76685597 -141.9140625 53.203125 C-141.26211914 52.71247559 -140.61017578 52.22182617 -139.93847656 51.71630859 C-129.94817309 44.23817357 -119.79024883 37.32151018 -108.9140625 31.203125 C-108.28806152 30.84299316 -107.66206055 30.48286133 -107.01708984 30.11181641 C-75.12793112 11.85380451 -36.90793303 0.18780367 0 0 Z " fill="#BE3C35" transform="translate(242.9140625,7.796875)"/>
<path d="M0 0 C0.66 0.70125 1.32 1.4025 2 2.125 C9.9180621 9.93278268 19.36024998 16.26875927 30.84712219 16.29217529 C35.07145232 16.18923405 39.286024 16.00100933 43.50390625 15.74658203 C55.75710162 15.06678919 64.60145497 16.81958362 74.33398438 24.94970703 C80.40031618 31.25910966 84.54042079 39.20427464 88.875 46.75 C94.63687573 56.76606483 100.74294505 65.98976694 108 75 C108.55099365 75.70535889 109.1019873 76.41071777 109.66967773 77.13745117 C125.09549966 96.75762329 152.82695134 108.42414245 177.08203125 111.78515625 C180.82987805 112.22382049 184.5790596 112.56824962 188.34429932 112.81576538 C190.2281787 112.94645624 192.11095449 113.09351888 193.9927063 113.25192261 C202.09881103 113.90743481 210.11471952 114.09523593 218.24467278 113.98346901 C220.34601922 113.95613803 222.44725024 113.93870981 224.54872131 113.92399597 C230.51242072 113.88192055 236.47589329 113.83395826 242.43920898 113.75317383 C246.11879844 113.70403934 249.79809233 113.67549321 253.47796822 113.65942955 C254.85839635 113.64969127 256.23879744 113.63273469 257.61903191 113.60764503 C271.15300217 113.36691252 283.30808317 116.09505649 295.5 122.0625 C296.29768799 122.44825195 297.09537598 122.83400391 297.91723633 123.23144531 C307.47039371 128.01803579 315.63822778 134.35454844 323.81640625 141.16796875 C345.08154722 158.88271412 369.07563803 171.38901702 395 181 C394.4075705 186.57422305 392.42540866 191.14461648 390.125 196.1875 C389.72643799 197.06317627 389.32787598 197.93885254 388.91723633 198.84106445 C380.73012531 216.45575785 370.28745147 232.95295541 358 248 C355 247 355 247 353.5703125 244.62890625 C353.09335937 243.61699219 352.61640625 242.60507812 352.125 241.5625 C351.5990625 240.47324219 351.073125 239.38398438 350.53125 238.26171875 C349.60535283 236.28946331 348.68654994 234.31382567 347.78125 232.33203125 C338.26458992 212.10912858 320.12529592 200.87009735 299.7578125 193.53515625 C277.72381742 186.11925737 254.17701144 185.93869211 231.18508911 185.44491577 C210.99099354 185.00666267 190.79306669 184.35364977 171 180 C170.23059082 179.83661133 169.46118164 179.67322266 168.66845703 179.50488281 C131.23315558 171.41843918 100.53815807 152.33201975 79.07250977 120.31005859 C73.91186821 112.69399258 68.20179968 105.7832184 62 99 C61.401875 98.33097656 60.80375 97.66195312 60.1875 96.97265625 C41.54074032 77.16047409 14.26696951 62.58611325 -10.52734375 52.05078125 C-11.26533203 51.73705566 -12.00332031 51.42333008 -12.76367188 51.10009766 C-14.18353618 50.50402255 -15.60791339 49.91855509 -17.03710938 49.34521484 C-18.72636961 48.64221217 -20.36895813 47.82916543 -22 47 C-23.15049192 43.54852425 -22.9063179 43.13127436 -21.48046875 39.96484375 C-21.12235107 39.16385254 -20.7642334 38.36286133 -20.39526367 37.53759766 C-19.99670166 36.67956543 -19.59813965 35.8215332 -19.1875 34.9375 C-18.78313721 34.05368652 -18.37877441 33.16987305 -17.9621582 32.25927734 C-12.76893171 21.09697363 -6.96285933 10.16545596 0 0 Z " fill="#EE4035" transform="translate(48,119)"/>
<path d="M0 0 C2.078125 1.4609375 2.078125 1.4609375 4.25 3.375 C25.70548231 21.0405358 51.78869806 33.26793224 78 42 C78.71542969 42.24991699 79.43085938 42.49983398 80.16796875 42.75732422 C88.8254858 45.74900613 96.54548159 46.16281668 105.57446289 45.93505859 C116.87629203 45.75464667 127.60831574 48.48332112 137 55 C137.91652344 55.62648438 137.91652344 55.62648438 138.8515625 56.265625 C144.34766768 60.47849858 147.46071908 66.15145731 151 72 C158.46364939 84.09805495 166.34701861 88.48255839 180 92 C184.48188853 92.81559609 188.9792686 93.38392127 193.5 93.9375 C205.5566131 95.57556871 215.44964936 97.79702414 225.6484375 104.67578125 C228.9452142 106.53227179 232.3960032 107.80979515 235.9375 109.125 C236.6382666 109.39054687 237.3390332 109.65609375 238.06103516 109.9296875 C241.77728021 111.30484651 245.28139754 112.23623664 249.1875 112.9375 C252.23080815 113.97696009 252.89372843 114.80718898 254.47265625 117.671875 C255.95140795 121.74183381 257.03035075 125.78388254 258 130 C258.21640137 130.9276416 258.43280273 131.8552832 258.65576172 132.81103516 C262.93886199 151.53010936 265.2602125 169.82392929 266 189 C261.66013476 187.6827885 257.66762867 185.96011722 253.57983398 184.02954102 C245.03212801 180.00944141 236.39534704 176.56152276 227.4375 173.5625 C226.46377441 173.2329834 225.49004883 172.9034668 224.48681641 172.56396484 C213.19415455 168.87927453 202.60048175 167.72319019 190.75 167.5 C157.00150652 166.56621455 119.31589686 164.50821024 94.21337891 138.86938477 C90.10525099 134.42761947 86.83137986 129.52877676 83.5769043 124.44482422 C72.21920273 106.75596372 57.47122577 98.92996493 37.45849609 94.45397949 C28.38328716 92.52656159 19.23290676 91.75935513 10 91 C-23.24858777 88.26548894 -23.24858777 88.26548894 -36.8125 81.375 C-37.50351807 81.03654053 -38.19453613 80.69808105 -38.90649414 80.34936523 C-45.9640337 76.74937706 -52.00171816 72.13567939 -58 67 C-58.91652344 66.22269531 -59.83304688 65.44539063 -60.77734375 64.64453125 C-69.8410464 56.72571735 -76.89916573 47.66099901 -84 38 C-76.14023125 31.45019271 -67.67178122 25.98674453 -58.6875 21.125 C-57.73818604 20.61106689 -56.78887207 20.09713379 -55.81079102 19.56762695 C-42.50639979 12.48347058 -28.74354579 6.78071074 -14.5 1.875 C-13.62142334 1.56715576 -12.74284668 1.25931152 -11.83764648 0.94213867 C-4.01373189 -1.64591883 -4.01373189 -1.64591883 0 0 Z " fill="#EE4035" transform="translate(194,17)"/>
<path d="M0 0 C0.33 0 0.66 0 1 0 C1 1.98 1 3.96 1 6 C1.84071045 5.98428955 2.6814209 5.9685791 3.54760742 5.95239258 C6.7328046 5.90059187 9.91778383 5.86332887 13.10327148 5.83520508 C14.46955526 5.82032112 15.83579308 5.80000714 17.2019043 5.77368164 C34.83337829 5.44296992 51.73254711 9.21950097 66 20 C67.546875 21.0828125 67.546875 21.0828125 69.125 22.1875 C75.5368322 27.77143079 79.18176883 36.2646559 83.0625 43.6875 C92.55429923 61.75261005 106.42344973 69.05727283 125 76.125 C139.50687053 81.80292519 147.52365511 91.87055453 153.9375 105.8125 C158.47275376 115.28481066 163.04656963 124.31294235 170.74609375 131.66796875 C172 133 172 133 172 135 C172.60070312 135.26683594 173.20140625 135.53367187 173.8203125 135.80859375 C176.05509325 137.03011369 177.21213865 138.16144499 178.875 140.0625 C195.01364873 156.57886178 221.1544859 165.57576309 243.69702148 166.23339844 C273.34176557 167.1749627 303.10485077 176.64474403 329 191 C329.33 191.66 329.66 192.32 330 193 C317.08144651 200.75443185 303.81472893 206.63877319 289.72998047 211.96484375 C287.49974122 212.81050771 285.2812763 213.67774759 283.06640625 214.5625 C272.69170165 218.54798076 261.86593049 220.79377959 251 223 C250.19981445 223.16274414 249.39962891 223.32548828 248.57519531 223.49316406 C243.40440078 224.51583722 238.22929103 225.34054913 233 226 C231.73397949 226.16387207 231.73397949 226.16387207 230.44238281 226.33105469 C213.57614462 228.34854729 213.57614462 228.34854729 207.5 223.9375 C206.39205078 222.96490234 206.39205078 222.96490234 205.26171875 221.97265625 C195.34385957 213.32236456 180.58881498 209.90438632 167.96386719 207.28027344 C142.71421784 202.00798683 123.70643893 188.40781011 105 171 C104.33355469 170.38769531 103.66710937 169.77539062 102.98046875 169.14453125 C98.71721849 165.07230239 95.13786146 160.66720152 91.5625 156 C78.16171689 138.71013856 60.51262853 131.60194548 39.109375 128.3046875 C33.41175056 127.74637757 27.71698529 127.84777258 22 128 C9.30464048 98.13421474 -0.27881459 66.91720886 -0.09765625 34.1796875 C-0.0962413 33.19501495 -0.09482635 32.21034241 -0.09336853 31.1958313 C-0.08782615 28.088855 -0.07528483 24.98195407 -0.0625 21.875 C-0.05747754 19.75260522 -0.05291595 17.63020929 -0.04882812 15.5078125 C-0.03787567 10.33851317 -0.02065166 5.16926931 0 0 Z " fill="#EE4035" transform="translate(8,233)"/>
<path d="M0 0 C2.94082354 2.79216653 5.26442307 5.66456221 7.5625 9 C12.21883008 15.48437078 17.48298129 21.25725942 23 27 C23.46873535 27.49064941 23.9374707 27.98129883 24.42041016 28.48681641 C30.23637508 34.54419116 36.19212504 40.07479663 43 45 C42.54567688 49.39531205 39.59981738 51.96208524 36.6875 55 C36.15133057 55.5681543 35.61516113 56.13630859 35.06274414 56.72167969 C33.38474197 58.4905767 31.69427331 60.24669278 30 62 C29.2255957 62.80727539 29.2255957 62.80727539 28.43554688 63.63085938 C18.92412036 73.51047015 8.61663259 81.90400004 -2.4375 90 C-3.21947754 90.5767749 -4.00145508 91.1535498 -4.80712891 91.74780273 C-5.921604 92.55326538 -5.921604 92.55326538 -7.05859375 93.375 C-7.72173584 93.85710937 -8.38487793 94.33921875 -9.06811523 94.8359375 C-11.05323194 96.03207505 -12.73508846 96.56612581 -15 97 C-15.81082031 96.09378906 -16.62164062 95.18757813 -17.45703125 94.25390625 C-31.18748658 79.07396264 -46.77087284 67.32300474 -65 58 C-61.6781351 54.36097212 -57.98530077 51.88703962 -53.875 49.25 C-47.61789706 45.15106349 -41.73450498 40.81160808 -36 36 C-35.030625 35.21496094 -34.06125 34.42992187 -33.0625 33.62109375 C-21.02430597 23.78441532 -8.85591398 12.855359 0 0 Z " fill="#A33B35" transform="translate(404,368)"/>
<path d="M0 0 C3.78301531 1.33912047 6.54085843 3.02727683 9.6875 5.5 C42.9012798 30.06666757 89.07643131 46.66987142 130.42578125 47.24609375 C132.06315855 47.28024089 133.70052836 47.31474903 135.33789062 47.34960938 C137.83805207 47.40154736 140.33349566 47.4374004 142.83422852 47.42553711 C156.73529033 47.39445668 156.73529033 47.39445668 162.23608398 51.29418945 C164.81949967 54.06435808 166.94126739 56.8248416 169 60 C169.47977295 60.69875244 169.9595459 61.39750488 170.45385742 62.11743164 C171.53683264 63.79523909 172.4936451 65.55266732 173.4375 67.3125 C174.36369141 69.00826172 174.36369141 69.00826172 175.30859375 70.73828125 C182.17810039 83.98548228 182.17810039 83.98548228 182 92 C151.01654375 93.15108816 121.25705321 85.46532434 93 73 C92.20400391 72.65211426 91.40800781 72.30422852 90.58789062 71.94580078 C57.90435603 57.51299498 19.60431856 32.78706366 0 2 C0 1.34 0 0.68 0 0 Z " fill="#A43C35" transform="translate(63,411)"/>
<path d="M0 0 C14.7735696 7.14398439 14.7735696 7.14398439 21.25 11.9375 C21.82226318 12.35789551 22.39452637 12.77829102 22.98413086 13.21142578 C28.1019269 16.99915293 33.0754867 20.96524671 38 25 C38.89589844 25.63164062 39.79179687 26.26328125 40.71484375 26.9140625 C43.48164842 29.43965855 43.5269765 30.3481961 44 34 C44.11640588 36.60008406 44.18709309 39.17300608 44.203125 41.7734375 C44.21000336 42.52595291 44.21688171 43.27846832 44.22396851 44.05378723 C44.24117256 46.49424054 44.24743409 48.93448911 44.25 51.375 C44.25167175 52.20480377 44.25334351 53.03460754 44.25506592 53.88955688 C44.25670399 67.44675823 43.46756066 80.6427479 41 94 C40.84241211 94.89799316 40.68482422 95.79598633 40.52246094 96.72119141 C40.3577832 97.61370605 40.19310547 98.5062207 40.0234375 99.42578125 C39.80179932 100.632948 39.80179932 100.632948 39.57568359 101.86450195 C39 104 39 104 37 107 C29.18319889 106.63215054 21.98664711 104.83785653 14.48193359 102.70361328 C11.51820919 101.8634152 8.55023384 101.03907978 5.58203125 100.21484375 C1.13169073 98.97663774 -3.31805872 97.73641929 -7.765625 96.48828125 C-8.70180664 96.22571533 -9.63798828 95.96314941 -10.60253906 95.69262695 C-12.41400487 95.16929411 -14.21121352 94.59626216 -16 94 C-14.93517775 88.48228469 -13.46737977 83.31172259 -11.625 78 C-2.96238451 52.66671903 -1.33026363 26.52884819 0 0 Z " fill="#A33C35" transform="translate(460,207)"/>
<path d="M0 0 C3.22189947 0.58643742 4.92234124 1.5257349 7.28515625 3.7734375 C7.89278809 4.34537842 8.50041992 4.91731934 9.12646484 5.5065918 C9.76535645 6.1231665 10.40424805 6.73974121 11.0625 7.375 C11.72717285 8.00768799 12.3918457 8.64037598 13.07666016 9.29223633 C15.05937798 11.18643571 17.03074363 13.09182162 19 15 C19.53705566 15.5151416 20.07411133 16.0302832 20.62744141 16.56103516 C27.29765983 22.96821507 33.36986865 29.66614914 39 37 C39.79543213 38.02939697 39.79543213 38.02939697 40.60693359 39.07958984 C62 66.92462825 62 66.92462825 62 74 C57.97892679 73.48756938 53.97260284 72.91256418 49.96777344 72.28564453 C48.10219601 72.0148349 46.22660825 71.81582548 44.3515625 71.62109375 C40.886713 71.1176202 38.14481868 70.54745046 35 69 C32.33134725 65.33604553 31.30782077 61.30254078 30 57 C28.99253809 54.49759461 27.96312582 52.02867073 26.875 49.5625 C26.58616943 48.90169434 26.29733887 48.24088867 25.99975586 47.56005859 C20.14391852 34.37785975 13.48961024 21.50852472 5.17260742 9.70483398 C2.96928766 6.5706242 1.25230799 3.62830855 0 0 Z " fill="#A53B35" transform="translate(412,64)"/>
<path d="M0 0 C5.28 0 10.56 0 16 0 C16 5.28 16 10.56 16 16 C10.72 16 5.44 16 0 16 C0 10.72 0 5.44 0 0 Z " fill="#EF4136" transform="translate(400,400)"/>
<path d="M0 0 C5.28 0 10.56 0 16 0 C16 5.28 16 10.56 16 16 C10.72 16 5.44 16 0 16 C0 10.72 0 5.44 0 0 Z " fill="#BE3C36" transform="translate(56,312)"/>
<path d="M0 0 C5.28 0 10.56 0 16 0 C16 5.28 16 10.56 16 16 C10.72 16 5.44 16 0 16 C0 10.72 0 5.44 0 0 Z " fill="#EF4136" transform="translate(208,176)"/>
<path d="M0 0 C5.28 0 10.56 0 16 0 C16 5.28 16 10.56 16 16 C10.72 16 5.44 16 0 16 C0 10.72 0 5.44 0 0 Z " fill="#BE3C36" transform="translate(248,72)"/>
</svg>
