<?xml version="1.0" encoding="UTF-8"?>
<svg version="1.1" xmlns="http://www.w3.org/2000/svg" width="512" height="512">
<path d="M0 0 C1.49504562 0.00456207 1.49504562 0.00456207 3.02029419 0.00921631 C61.89093961 0.27358697 118.66108756 20.85659628 163.375 59.4375 C164.13167969 60.08332031 164.88835937 60.72914062 165.66796875 61.39453125 C178.81932767 72.91573847 191.05594178 85.3102663 201.375 99.4375 C202.23306152 100.58855017 203.09113451 101.73959177 203.94921875 102.890625 C209.98797189 111.08336494 215.32213163 119.6084002 220.375 128.4375 C221.03113281 129.56027344 221.68726563 130.68304688 222.36328125 131.83984375 C234.34916167 153.19344634 242.04091789 176.81810156 247.125 200.6875 C247.42337769 202.08754272 247.42337769 202.08754272 247.7277832 203.51586914 C250.92306701 219.30586237 251.78248443 234.6833319 251.75 250.75 C251.74918427 252.27043915 251.74918427 252.27043915 251.74835205 253.82159424 C251.70847417 270.01871221 250.84247801 285.56258365 247.375 301.4375 C247.15537598 302.46375488 246.93575195 303.49000977 246.70947266 304.54736328 C234.31581665 361.0248941 202.67975153 414.11287248 156.375 449.4375 C155.83327148 449.85563965 155.29154297 450.2737793 154.73339844 450.70458984 C144.73764773 458.38780709 134.26561025 465.09777881 123.375 471.4375 C122.76253418 471.7994043 122.15006836 472.16130859 121.51904297 472.53417969 C99.95279878 485.17041472 75.52120018 492.98153373 51.1875 498.1875 C50.26251709 498.38641846 49.33753418 498.58533691 48.38452148 498.7902832 C32.5156425 502.01272043 16.90093139 502.81461893 0.75 502.75 C-0.22088562 502.74784485 -1.19177124 502.7456897 -2.19207764 502.74346924 C-16.53085186 502.69241637 -30.53046967 502.29699913 -44.625 499.4375 C-45.64045898 499.23882324 -46.65591797 499.04014648 -47.70214844 498.83544922 C-96.24192015 489.12604028 -138.85845785 466.50237407 -174.625 432.4375 C-175.22393066 431.86725098 -175.82286133 431.29700195 -176.43994141 430.70947266 C-185.33116726 422.18077936 -193.35276231 413.38143792 -200.625 403.4375 C-201.1106543 402.78023926 -201.59630859 402.12297852 -202.09667969 401.44580078 C-218.60305244 379.00794726 -231.17015329 355.00987538 -239.625 328.4375 C-239.97836426 327.34791992 -239.97836426 327.34791992 -240.33886719 326.23632812 C-242.96804662 318.06749387 -245.08714905 309.84401446 -246.8125 301.4375 C-246.9674292 300.69177734 -247.1223584 299.94605469 -247.28198242 299.17773438 C-250.33299196 283.51245296 -251.03233153 267.98430769 -251 252.0625 C-250.99945618 251.05137146 -250.99891235 250.04024292 -250.99835205 248.99847412 C-250.95844236 232.82036304 -250.08840717 217.29377908 -246.625 201.4375 C-246.40537598 200.41124512 -246.18575195 199.38499023 -245.95947266 198.32763672 C-237.02764297 157.62554802 -218.88833762 120.03475081 -191.625 88.4375 C-190.65626953 87.30248047 -190.65626953 87.30248047 -189.66796875 86.14453125 C-178.14407113 72.99010127 -165.74626317 60.76913558 -151.625 50.4375 C-150.49716154 49.59145808 -149.36955819 48.74510264 -148.2421875 47.8984375 C-120.85128779 27.58727284 -88.91887761 13.5451469 -55.8125 5.75 C-55.02125732 5.55962158 -54.23001465 5.36924316 -53.41479492 5.1730957 C-35.75595085 1.2137988 -18.05278324 -0.11794867 0 0 Z " fill="#CCE8FD" transform="translate(255.625,4.5625)"/>
<path d="M0 0 C1.49504562 0.00456207 1.49504562 0.00456207 3.02029419 0.00921631 C61.89093961 0.27358697 118.66108756 20.85659628 163.375 59.4375 C164.13167969 60.08332031 164.88835937 60.72914062 165.66796875 61.39453125 C178.81932767 72.91573847 191.05594178 85.3102663 201.375 99.4375 C202.23306152 100.58855017 203.09113451 101.73959177 203.94921875 102.890625 C209.98797189 111.08336494 215.32213163 119.6084002 220.375 128.4375 C221.03113281 129.56027344 221.68726563 130.68304688 222.36328125 131.83984375 C234.34916167 153.19344634 242.04091789 176.81810156 247.125 200.6875 C247.42337769 202.08754272 247.42337769 202.08754272 247.7277832 203.51586914 C250.92306701 219.30586237 251.78248443 234.6833319 251.75 250.75 C251.74918427 252.27043915 251.74918427 252.27043915 251.74835205 253.82159424 C251.70847417 270.01871221 250.84247801 285.56258365 247.375 301.4375 C247.15537598 302.46375488 246.93575195 303.49000977 246.70947266 304.54736328 C234.31581665 361.0248941 202.67975153 414.11287248 156.375 449.4375 C155.83327148 449.85563965 155.29154297 450.2737793 154.73339844 450.70458984 C144.73764773 458.38780709 134.26561025 465.09777881 123.375 471.4375 C122.76253418 471.7994043 122.15006836 472.16130859 121.51904297 472.53417969 C99.95279878 485.17041472 75.52120018 492.98153373 51.1875 498.1875 C50.26251709 498.38641846 49.33753418 498.58533691 48.38452148 498.7902832 C32.5156425 502.01272043 16.90093139 502.81461893 0.75 502.75 C-0.22088562 502.74784485 -1.19177124 502.7456897 -2.19207764 502.74346924 C-16.53085186 502.69241637 -30.53046967 502.29699913 -44.625 499.4375 C-46.14818848 499.13948486 -46.14818848 499.13948486 -47.70214844 498.83544922 C-79.72136252 492.43064688 -110.38606134 480.59679244 -137.625 462.4375 C-136.74570259 454.94973302 -130.87310039 448.16994451 -125.23828125 443.4296875 C-123.08140517 441.97223983 -120.9175886 440.66830371 -118.625 439.4375 C-117.5525 438.839375 -116.48 438.24125 -115.375 437.625 C-102.20275564 431.93698539 -84.72537171 435.06762771 -71.625 439.4375 C-70.92584473 439.6634082 -70.22668945 439.88931641 -69.50634766 440.12207031 C-54.70972667 445.01606007 -40.741747 451.95922311 -26.74169922 458.73876953 C-18.7124098 462.61921897 -10.65042713 466.3787966 -2.4453125 469.875 C-1.67911591 470.20508057 -0.91291931 470.53516113 -0.12350464 470.87524414 C12.60275545 476.21470417 23.95913929 476.29633553 37.375 473.4375 C38.38949219 473.28539062 39.40398437 473.13328125 40.44921875 472.9765625 C46.52977287 471.65301039 49.87565469 469.46601581 53.31274414 464.40332031 C55.51112532 460.8354065 57.47538182 457.17169167 59.375 453.4375 C59.76816406 452.67356934 60.16132813 451.90963867 60.56640625 451.12255859 C69.09445854 434.33735337 75.5348955 416.96743727 80.6796875 398.87939453 C81.34875998 396.52965333 82.03252256 394.18462237 82.71875 391.83984375 C90.28424184 365.69984368 94.96917525 338.16173021 97.16455078 311.03515625 C97.31566891 309.16984658 97.47666674 307.3053274 97.64404297 305.44140625 C101.7058602 259.35724716 100.47463013 212.28251564 94.375 166.4375 C93.23804688 166.51871094 92.10109375 166.59992188 90.9296875 166.68359375 C78.78428635 167.28452432 69.94691846 165.72823834 60.3203125 157.73046875 C54.27166435 151.30566089 51.09605327 142.40434231 51.22265625 133.7109375 C51.59904693 128.09403044 53.86802434 123.75377774 57.375 119.4375 C64.73610257 113.25056103 72.76841376 110.18725607 82.375 110.4375 C75.03025369 82.97816435 65.09077272 57.22442113 49.375 33.4375 C45.38129938 34.03416842 41.8813318 35.34109353 38.15014648 36.81225586 C3.94078027 50.17795371 -37.84017119 49.59321917 -71.86328125 35.32421875 C-80.86117327 31.31699665 -89.00233784 26.72405509 -96.625 20.4375 C-94.16010197 17.52938686 -91.78011771 16.56126571 -88.19921875 15.3515625 C-86.55602661 14.7949292 -86.55602661 14.7949292 -84.87963867 14.22705078 C-83.11390503 13.65059814 -83.11390503 13.65059814 -81.3125 13.0625 C-80.09860596 12.66401855 -78.88471191 12.26553711 -77.6340332 11.85498047 C-52.20744415 3.67863937 -26.68796358 -0.17436701 0 0 Z " fill="#9CD3FC" transform="translate(255.625,4.5625)"/>
<path d="M0 0 C1.04325439 -0.02304199 2.08650879 -0.04608398 3.16137695 -0.06982422 C22.55412397 0.12604641 36.82618683 14.15781341 49.70703125 27.15869141 C50.69116266 28.16716643 51.6748083 29.17611573 52.65795898 30.18554688 C71.73330495 49.714841 94.43232814 63.47344475 122.4375 64 C141.86277518 63.96308633 158.34175911 55.63347644 174.41723633 45.45996094 C188.09488457 36.8266841 200.48468155 30.13533949 217.1875 31.625 C220.83922982 32.50662476 223.88717369 33.85575291 227.1875 35.625 C227.99960937 35.9446875 228.81171875 36.264375 229.6484375 36.59375 C232.44520177 38.00645004 233.54961559 38.9313992 235.1875 41.625 C235.17107666 44.47794253 234.97958234 46.95665705 234.56640625 49.75390625 C234.41091057 50.94677498 234.41091057 50.94677498 234.25227356 52.16374207 C233.91965717 54.65455336 233.5579742 57.13955886 233.1875 59.625 C233.07738586 60.38091431 232.96727173 61.13682861 232.8538208 61.91564941 C232.09114622 67.10057998 231.24909267 72.27030286 230.375 77.4375 C230.24399902 78.21737274 230.11299805 78.99724548 229.97802734 79.80075073 C226.75695903 98.88397386 222.34436354 117.27086012 216.1875 135.625 C215.78942139 136.83687988 215.78942139 136.83687988 215.38330078 138.07324219 C200.5087979 183.25687856 200.5087979 183.25687856 187.1875 196.625 C184.54162342 197.75894711 182.18090072 198.61521058 179.4375 199.375 C178.75945312 199.58253906 178.08140625 199.79007813 177.3828125 200.00390625 C172.66214395 201.39497778 168.08263881 202.1314572 163.1875 202.625 C161.888125 202.76035156 161.888125 202.76035156 160.5625 202.8984375 C146.22583219 203.51151869 132.60724245 196.2714878 120.05166626 190.12481689 C115.90258488 188.09475842 111.73544854 186.10232188 107.5703125 184.10546875 C106.75627457 183.71415771 105.94223663 183.32284668 105.10353088 182.91967773 C98.4573187 179.73229776 91.764771 176.67903446 85 173.75 C84.14269287 173.37657471 83.28538574 173.00314941 82.40209961 172.6184082 C68.44188902 166.63426601 55.14454645 162.40259656 39.875 162.25 C39.05136963 162.23614258 38.22773926 162.22228516 37.37915039 162.20800781 C26.95457365 162.28760872 18.48681147 166.10119753 10.625 172.8125 C7.7122865 176.17332327 5.22774985 179.73620476 2.73828125 183.41796875 C1.1875 185.625 1.1875 185.625 -0.8125 187.625 C-13.71742715 178.94648778 -25.54205498 169.35923002 -36.8125 158.625 C-37.41143066 158.05475098 -38.01036133 157.48450195 -38.62744141 156.89697266 C-47.51866726 148.36827936 -55.54026231 139.56893792 -62.8125 129.625 C-63.2981543 128.96773926 -63.78380859 128.31047852 -64.28417969 127.63330078 C-80.79055244 105.19544726 -93.35765329 81.19737538 -101.8125 54.625 C-102.04807617 53.89861328 -102.28365234 53.17222656 -102.52636719 52.42382812 C-105.21502328 44.0702005 -107.35411922 35.65780859 -109.125 27.0625 C-109.38253052 25.83080078 -109.38253052 25.83080078 -109.64526367 24.57421875 C-110.6388767 19.49886204 -110.97242525 14.79591652 -110.8125 9.625 C-110.17795898 9.76357422 -109.54341797 9.90214844 -108.88964844 10.04492188 C-83.90088699 15.09116116 -59.83496882 10.45736646 -35.44140625 4.85009766 C-23.58669409 2.13967938 -12.19516765 0.15194838 0 0 Z " fill="#9CD3FC" transform="translate(117.8125,278.375)"/>
<path d="M0 0 C18.81971096 5.61341457 34.75329878 18.5021619 48.2421875 32.328125 C62.37357728 46.79742961 75.49861388 57.97289639 96.8125 58.25 C105.07781466 58.25407862 112.96196272 56.81645187 121 55 C122.04075684 54.76724365 122.04075684 54.76724365 123.10253906 54.52978516 C132.5825561 52.39233276 132.5825561 52.39233276 141.9609375 49.85546875 C149.32938964 47.73786523 156.31499074 46.57817982 164 46.4375 C165.16571533 46.39737793 165.16571533 46.39737793 166.35498047 46.35644531 C173.78343519 46.40438114 178.59321734 49.59321734 183.75 54.75 C193.52245377 68.86576656 193.61956778 86.22225455 190.8125 102.625 C187.54481721 119.97683452 181.18537931 137.17857269 166.33984375 147.92578125 C157.11164369 153.62035536 147.82062356 154.26242624 137.14453125 152.5390625 C123.29072031 148.79478927 112.80014221 138.66468136 103.7265625 128 C93.25541591 115.87052703 79.33953189 105.50112379 62.9453125 103.65625 C43.38395057 102.8561943 23.74709147 109.46904295 5.1706543 114.99926758 C-2.78877914 117.32961414 -10.81087668 118.7532441 -19 120 C-20.00933594 120.185625 -21.01867188 120.37125 -22.05859375 120.5625 C-36.90961462 122.77141678 -50.0403977 120.30700981 -63 113 C-52.93936716 70.50706393 -30.91127089 30.91127089 0 0 Z " fill="#9CD3FC" transform="translate(75,81)"/>
<path d="M0 0 C6.61569579 3.70945765 12.94792926 7.80803044 19.22387695 12.06103516 C31.9369264 20.66401256 45.01444336 28.5917388 59.00683594 34.93774414 C59.6160791 35.2198877 60.22532227 35.50203125 60.85302734 35.79272461 C89.41091326 48.72646691 124.35894839 47.49324798 154.81933594 44.12524414 C155.58583466 44.04247223 156.35233337 43.95970032 157.14205933 43.87442017 C165.45152813 42.9622844 173.52846968 41.80474353 181.59545898 39.51708984 C184.00683594 38.93774414 184.00683594 38.93774414 188.00683594 38.93774414 C181.92075321 60.6661272 173.33339823 90.55379499 157.00683594 106.93774414 C154.36095935 108.07169125 152.00023666 108.92795472 149.25683594 109.68774414 C148.57878906 109.8952832 147.90074219 110.10282227 147.20214844 110.31665039 C142.48147988 111.70772192 137.90197475 112.44420134 133.00683594 112.93774414 C132.14058594 113.02797852 131.27433594 113.11821289 130.38183594 113.21118164 C116.04516813 113.82426283 102.42657839 106.58423194 89.8710022 100.43756104 C85.72192082 98.40750256 81.55478448 96.41506602 77.38964844 94.41821289 C76.5756105 94.02690186 75.76157257 93.63559082 74.92286682 93.23242188 C68.27665464 90.0450419 61.58410694 86.9917786 54.81933594 84.06274414 C53.96202881 83.68931885 53.10472168 83.31589355 52.22143555 82.93115234 C38.26122496 76.94701015 24.96388239 72.7153407 9.69433594 72.56274414 C8.45889038 72.54195801 8.45889038 72.54195801 7.19848633 72.52075195 C-3.22609041 72.60035286 -11.6938526 76.41394167 -19.55566406 83.12524414 C-22.46837757 86.48606741 -24.95291421 90.0489489 -27.44238281 93.73071289 C-28.99316406 95.93774414 -28.99316406 95.93774414 -30.99316406 97.93774414 C-43.89809122 89.25923192 -55.72271904 79.67197416 -66.99316406 68.93774414 C-67.59209473 68.36749512 -68.19102539 67.79724609 -68.80810547 67.2097168 C-77.69589591 58.68431884 -85.7169472 49.87414156 -92.99316406 39.93774414 C-93.4672168 39.29256836 -93.94126953 38.64739258 -94.4296875 37.98266602 C-102.99316406 26.278676 -102.99316406 26.278676 -102.99316406 24.93774414 C-101.30900391 24.86426758 -101.30900391 24.86426758 -99.59082031 24.78930664 C-79.70119074 23.8361508 -66.45890963 18.92467474 -51.60644531 5.25024414 C-34.23007028 -10.12615948 -20.27357512 -10.92091681 0 0 Z " fill="#CCE8FD" transform="translate(147.9931640625,368.062255859375)"/>
<path d="M0 0 C1.49504562 0.00456207 1.49504562 0.00456207 3.02029419 0.00921631 C53.57672498 0.23625029 104.45037663 15.07082615 145.375 45.4375 C143.28811354 47.65320661 141.16318244 49.27245232 138.625 50.9375 C130.9765877 56.6444628 126.97233985 66.01643361 122.69604492 74.33081055 C115.04581248 89.15454765 107.14902647 101.75776091 91.125 108.25 C87.375 109.4375 87.375 109.4375 83.375 109.4375 C83.67792969 110.675 83.98085938 111.9125 84.29296875 113.1875 C86.69846614 123.09710339 88.99681851 133.0269583 91.125 143 C91.33535889 143.96099609 91.54571777 144.92199219 91.76245117 145.91210938 C93.19544565 152.73421805 93.9380754 159.4826075 94.375 166.4375 C81.03213223 167.39056198 71.00421866 166.60664174 60.3203125 157.73046875 C54.27166435 151.30566089 51.09605327 142.40434231 51.22265625 133.7109375 C51.59904693 128.09403044 53.86802434 123.75377774 57.375 119.4375 C64.73610257 113.25056103 72.76841376 110.18725607 82.375 110.4375 C75.03025369 82.97816435 65.09077272 57.22442113 49.375 33.4375 C45.38129938 34.03416842 41.8813318 35.34109353 38.15014648 36.81225586 C3.94078027 50.17795371 -37.84017119 49.59321917 -71.86328125 35.32421875 C-80.86117327 31.31699665 -89.00233784 26.72405509 -96.625 20.4375 C-94.16010197 17.52938686 -91.78011771 16.56126571 -88.19921875 15.3515625 C-87.10375732 14.98047363 -86.0082959 14.60938477 -84.87963867 14.22705078 C-83.70248291 13.84274902 -82.52532715 13.45844727 -81.3125 13.0625 C-80.09860596 12.66401855 -78.88471191 12.26553711 -77.6340332 11.85498047 C-52.20744415 3.67863937 -26.68796358 -0.17436701 0 0 Z " fill="#9CD3FC" transform="translate(255.625,4.5625)"/>
<path d="M0 0 C2.24792793 1.57007337 4.37057978 3.15786681 6.5 4.875 C7.1202002 5.37040283 7.74040039 5.86580566 8.37939453 6.3762207 C14.50253483 11.31966624 20.33083554 16.54574069 26 22 C26.62696777 22.59973633 27.25393555 23.19947266 27.89990234 23.81738281 C37.10241092 32.66586311 45.35876438 41.7805153 53 52 C53.75796875 52.87269531 54.5159375 53.74539062 55.296875 54.64453125 C57 57 57 57 57 61 C56.443125 61.20753906 55.88625 61.41507813 55.3125 61.62890625 C45.72978676 65.49760298 39.73994849 70.78484662 35.375 80.23828125 C31.27315148 90.72754219 29.50335694 102.22098958 27.4375 113.25 C26.03337633 120.37982796 24.35413266 128.64899071 18.06640625 133.1875 C6.21605812 137.84699416 -8.17024704 131.66252937 -19.4609375 127.80078125 C-20.62794189 127.40366943 -21.79494629 127.00655762 -22.99731445 126.59741211 C-25.31311053 125.8033841 -27.62449147 124.99631671 -29.93041992 124.17407227 C-37.0492473 121.70944041 -43.81457075 120.26921507 -51.31225586 119.47900391 C-52.19921143 119.32093262 -53.08616699 119.16286133 -54 119 C-55.27042653 116.45914694 -55.47654447 114.1897734 -55.875 111.37109375 C-56.93448914 104.24406727 -58.23127453 97.17563749 -59.60449219 90.10424805 C-60.00414674 88.04109311 -60.39674008 85.97666962 -60.7890625 83.91210938 C-61.04645159 82.57804324 -61.30424908 81.24405582 -61.5625 79.91015625 C-61.90474609 78.13330444 -61.90474609 78.13330444 -62.25390625 76.32055664 C-62.97309241 73.1197546 -63.96166612 70.10809782 -65 67 C-65.125 64.125 -65.125 64.125 -65 62 C-64.09378906 61.72027344 -63.18757813 61.44054687 -62.25390625 61.15234375 C-54.47534386 58.59241475 -47.91299883 55.84884333 -42 50 C-41.48928955 49.49662109 -40.9785791 48.99324219 -40.45239258 48.47460938 C-34.77186284 42.47951223 -31.25619471 35.42414742 -27.5625 28.125 C-10.98030945 -4.64095813 -10.98030945 -4.64095813 0 0 Z " fill="#69BDFB" transform="translate(404,52)"/>
<path d="M0 0 C5.64465102 19.99982949 7.56892518 39.94995627 7.4375 60.6875 C7.43512329 61.68314972 7.43274658 62.67879944 7.43029785 63.70462036 C7.35116037 84.97622111 5.42053598 105.61138308 -1 126 C-19.08534405 125.45771082 -32.47817698 119.53764123 -47.34375 109.8125 C-58.340502 102.62650364 -68.98875246 99.19955749 -82 98.0625 C-88.75605218 97.44122773 -93.52865467 96.35869994 -98 91 C-102.54613929 85.31732589 -103.76323438 80.09481474 -103.4140625 72.86328125 C-102.40580324 65.89107333 -99.21170386 61.65612525 -93.87890625 57.2265625 C-89.13213669 54.12783975 -84.79889604 53.75469583 -79.25 53.625 C-64.82026804 52.94835155 -56.00929754 45.59930903 -46.4375 35.1875 C-42.99327756 31.38394293 -39.74761031 27.46200761 -36.5625 23.4375 C-28.8426864 13.91502047 -20.27182823 6.11060774 -9 1 C-8.15308594 0.59910156 -7.30617188 0.19820312 -6.43359375 -0.21484375 C-3.77570185 -1.07236586 -2.57973661 -0.955458 0 0 Z " fill="#69BDFB" transform="translate(500,195)"/>
<path d="M0 0 C-1.83901899 5.51705697 -7.50361267 8.53087719 -12 12 C-12.84087158 12.6511377 -12.84087158 12.6511377 -13.69873047 13.31542969 C-23.6749661 20.98081761 -34.13235452 27.67364722 -45 34 C-45.61246582 34.3619043 -46.22493164 34.72380859 -46.85595703 35.09667969 C-75.48434929 51.87081476 -113.0678943 64.37481452 -146.4375 64.0625 C-147.35982422 64.05798828 -148.28214844 64.05347656 -149.23242188 64.04882812 C-151.48835048 64.03713938 -153.74413967 64.02075455 -156 64 C-153.67140603 61.67140603 -151.55737911 60.80447343 -148.5625 59.4375 C-136.0285946 53.22295909 -126.69888045 43.54832067 -119 32 C-116.52001953 30.77661133 -116.52001953 30.77661133 -113.3828125 29.58203125 C-112.2280542 29.13617676 -111.0732959 28.69032227 -109.88354492 28.23095703 C-108.63075963 27.75797108 -107.37790992 27.28515572 -106.125 26.8125 C-104.84637337 26.32246222 -103.56813636 25.83140668 -102.2902832 25.33935547 C-100.36055469 24.59647207 -98.43058206 23.85431724 -96.49916077 23.11584473 C-91.85773221 21.34013497 -87.24595186 19.50027134 -82.64404297 17.625 C-73.87325578 14.05462191 -65.09145495 10.67829349 -56 8 C-54.91960449 7.68119873 -54.91960449 7.68119873 -53.81738281 7.35595703 C-36.33293774 2.32502051 -18.21009129 -0.38268718 0 0 Z " fill="#6BBDFB" transform="translate(424,442)"/>
<path d="M0 0 C0.66 0 1.32 0 2 0 C3.20166016 1.44946289 3.20166016 1.44946289 4.5390625 3.47265625 C5.0335791 4.20484375 5.5280957 4.93703125 6.03759766 5.69140625 C6.56144043 6.47386719 7.0852832 7.25632812 7.625 8.0625 C14.392267 17.9979042 14.392267 17.9979042 24 25 C25.6460958 25.1055842 27.29596103 25.15530796 28.9453125 25.17578125 C29.94046875 25.19962891 30.935625 25.22347656 31.9609375 25.24804688 C34.04667637 25.29053415 36.13267196 25.32204235 38.21875 25.34179688 C45.69698682 25.54845766 51.20084324 26.67573784 57 31.75 C58.82260832 35.85086872 58.64508274 39.72162265 57.44921875 43.9453125 C50.78494676 59.54792085 31.17923885 69.99613965 16.18554688 76.15136719 C5.68868967 80.22722461 -4.9709108 83.7161987 -16 86 C-14.99350607 80.41663014 -13.74865945 75.00239839 -12.125 69.5625 C-8.03689613 55.42761688 -5.59625531 41.01894479 -3.3125 26.5 C-3.20390656 25.81399719 -3.09531311 25.12799438 -2.98342896 24.42120361 C-1.70531121 16.30106805 -0.605644 8.20147392 0 0 Z " fill="#69BDFB" transform="translate(352,321)"/>
<path d="M0 0 C0.33 0.66 0.66 1.32 1 2 C1.73605469 2.14308594 2.47210938 2.28617187 3.23046875 2.43359375 C12.59674899 4.34912356 21.11997488 12.69099002 26.6015625 20.19140625 C29.77156688 25.28289374 31.38458642 30.02263913 30 36 C26.99716357 40.91373233 23.50079806 43.49120967 18 45 C14.11668567 45.40153405 10.27546115 45.37843955 6.375 45.3125 C5.30991211 45.303396 4.24482422 45.29429199 3.14746094 45.28491211 C-5.81471616 45.14346878 -14.30660674 44.25459498 -23 42 C-22.38847135 37.33259752 -20.4447521 33.53300017 -18.25 29.4375 C-17.86529541 28.71312744 -17.48059082 27.98875488 -17.08422852 27.24243164 C-11.96059112 17.81130264 -5.9744396 8.90681618 0 0 Z " fill="#CCE8FE" transform="translate(51,109)"/>
<path d="M0 0 C3.08193978 1.6281946 5.26420667 3.03009062 7.375 5.8125 C9.15207615 12.03226654 7.74676603 17.37566955 5 23 C1.82054856 28.06357081 -3.25980971 31.84805055 -9.00390625 33.6171875 C-12.3850121 34.26561876 -15.61215655 34.61841587 -19 34 C-22.48864419 31.17939406 -24.78593713 28.98772666 -25.2734375 24.4609375 C-25.47200863 18.42743 -25.38852252 13.74059565 -21.765625 8.75390625 C-15.79506834 2.82297718 -8.42229838 -0.7137541 0 0 Z " fill="#CCE8FD" transform="translate(323,346)"/>
<path d="M0 0 C3.76107968 1.94183514 6.41761095 3.542609 8.5625 7.25 C9.0930638 11.94927935 9.0499806 14.23604035 7 18.5 C2.70655882 23.34388236 -2.41765033 25.8656555 -8.875 26.6875 C-15.05358561 26.60725863 -20.34712989 23.51382554 -25.4375 20.25 C-28.54243362 17.00393304 -29.64605011 14.57483236 -30 10.1875 C-29.4375 6.25 -29.4375 6.25 -27.4375 3.5 C-18.25156282 -3.38945289 -10.68390096 -5.07775269 0 0 Z " fill="#9BD2FB" transform="translate(394.4375,120.75)"/>
<path d="M0 0 C21.58337232 -1.20652392 43.30926532 3.18371053 64 9 C63.28430625 15.93482566 58.03061017 19.66883295 53 24 C49.43566693 26.52548222 45.787519 28.82541685 42 31 C38.64508454 27.71596304 35.54683232 24.31855018 32.5 20.75 C24.88388628 12.36435324 16.19575296 6.11798348 5.2421875 2.75390625 C3 2 3 2 0 0 Z " fill="#6BBEFB" transform="translate(263,5)"/>
</svg>
